<svg width="32" height="32" viewBox="0 0 32 32" fill="none" xmlns="http://www.w3.org/2000/svg">
<g clip-path="url(#clip0_598_30)">
<g filter="url(#filter0_d_598_30)">
<path d="M15.5479 2.35254C15.9152 2.06153 16.435 2.06487 16.7988 2.36035L28.7129 12.0361H28.9375V12.2188L29.4062 12.5996C29.7714 12.8965 29.5615 13.4873 29.0908 13.4873H28.9375V26.3857C28.9375 28.9029 26.897 30.9433 24.3799 30.9434C21.8628 30.9434 19.8223 28.9029 19.8223 26.3857V22.8506C19.8223 22.4316 19.7497 22.0156 19.6084 21.6211C18.4543 18.3987 13.8972 18.3987 12.7432 21.6211C12.6019 22.0155 12.5303 22.4316 12.5303 22.8506V26.3857C12.5303 28.9027 10.4896 30.9432 7.97266 30.9434C5.45553 30.9434 3.41504 28.9029 3.41504 26.3857V13.4873H2.93555C2.4618 13.4873 2.2538 12.89 2.625 12.5957L15.5479 2.35254Z" fill="url(#paint0_linear_598_30)"/>
</g>
</g>
<defs>
<filter id="filter0_d_598_30" x="-1.56543" y="2.13672" width="35.1572" height="36.8066" filterUnits="userSpaceOnUse" color-interpolation-filters="sRGB">
<feFlood flood-opacity="0" result="BackgroundImageFix"/>
<feColorMatrix in="SourceAlpha" type="matrix" values="0 0 0 0 0 0 0 0 0 0 0 0 0 0 0 0 0 0 127 0" result="hardAlpha"/>
<feOffset dy="4"/>
<feGaussianBlur stdDeviation="2"/>
<feComposite in2="hardAlpha" operator="out"/>
<feColorMatrix type="matrix" values="0 0 0 0 0 0 0 0 0 0 0 0 0 0 0 0 0 0 0.25 0"/>
<feBlend mode="normal" in2="BackgroundImageFix" result="effect1_dropShadow_598_30"/>
<feBlend mode="normal" in="SourceGraphic" in2="effect1_dropShadow_598_30" result="shape"/>
</filter>
<linearGradient id="paint0_linear_598_30" x1="16.0133" y1="3.26465" x2="16.0133" y2="30.9439" gradientUnits="userSpaceOnUse">
<stop stop-color="white"/>
<stop offset="1" stop-color="#878787"/>
</linearGradient>
<clipPath id="clip0_598_30">
<rect width="32" height="32" fill="white"/>
</clipPath>
</defs>
</svg>
