<svg width="250" height="150" viewBox="0 0 250 150" fill="none" xmlns="http://www.w3.org/2000/svg">
<g filter="url(#filter0_d_597_14)">
<path d="M102.537 67.86H107.047C109.086 67.86 110.763 68.2708 112.078 69.0925C113.402 69.9045 114.384 71.0307 115.022 72.471C115.66 73.9113 115.978 75.5595 115.978 77.4155C115.978 79.2812 115.66 80.9342 115.022 82.3745C114.384 83.8148 113.407 84.9458 112.093 85.7675C110.778 86.5892 109.096 87 107.047 87H102.537V67.86ZM105.002 70.122V84.738H106.844C108.352 84.738 109.584 84.4238 110.541 83.7955C111.498 83.1672 112.204 82.3068 112.658 81.2145C113.122 80.1125 113.359 78.8558 113.369 77.4445C113.369 76.0235 113.141 74.7668 112.687 73.6745C112.233 72.5725 111.522 71.7073 110.556 71.079C109.589 70.441 108.352 70.122 106.844 70.122H105.002ZM128.632 87V84.68C128.554 84.9217 128.327 85.2552 127.95 85.6805C127.583 86.1058 127.075 86.4925 126.428 86.8405C125.79 87.1788 125.036 87.348 124.166 87.348C123.064 87.348 122.063 87.087 121.164 86.565C120.275 86.043 119.564 85.3132 119.033 84.3755C118.511 83.4282 118.25 82.3213 118.25 81.055C118.25 79.7887 118.511 78.6867 119.033 77.749C119.564 76.8017 120.275 76.067 121.164 75.545C122.063 75.0133 123.064 74.7475 124.166 74.7475C125.026 74.7475 125.77 74.9022 126.399 75.2115C127.037 75.5208 127.544 75.8785 127.921 76.2845C128.308 76.6905 128.535 77.0385 128.603 77.3285V75.0955H131.097V87H128.632ZM120.744 81.055C120.744 81.9153 120.932 82.6597 121.309 83.288C121.686 83.9163 122.174 84.4045 122.774 84.7525C123.383 85.0908 124.03 85.26 124.717 85.26C125.451 85.26 126.109 85.086 126.689 84.738C127.269 84.39 127.728 83.9018 128.066 83.2735C128.404 82.6355 128.574 81.896 128.574 81.055C128.574 80.214 128.404 79.4793 128.066 78.851C127.728 78.213 127.269 77.72 126.689 77.372C126.109 77.0143 125.451 76.8355 124.717 76.8355C124.03 76.8355 123.383 77.0095 122.774 77.3575C122.174 77.7055 121.686 78.1937 121.309 78.822C120.932 79.4503 120.744 80.1947 120.744 81.055ZM138.934 74.7475C139.552 74.7475 140.128 74.8103 140.659 74.936C141.201 75.0617 141.665 75.2115 142.051 75.3855C142.448 75.5595 142.728 75.7142 142.892 75.8495L141.892 77.4445C141.698 77.2705 141.35 77.0772 140.848 76.8645C140.345 76.6422 139.784 76.531 139.166 76.531C138.489 76.531 137.914 76.6663 137.44 76.937C136.967 77.198 136.73 77.5798 136.73 78.0825C136.73 78.5852 136.971 78.9863 137.455 79.286C137.948 79.576 138.605 79.8177 139.427 80.011C140.084 80.1657 140.698 80.3735 141.268 80.6345C141.848 80.8955 142.317 81.258 142.675 81.722C143.032 82.1763 143.211 82.7853 143.211 83.549C143.211 84.245 143.066 84.8395 142.776 85.3325C142.486 85.8158 142.095 86.2073 141.602 86.507C141.109 86.797 140.558 87.0097 139.949 87.145C139.34 87.2803 138.721 87.348 138.093 87.348C137.358 87.348 136.696 87.2707 136.106 87.116C135.517 86.971 135.019 86.797 134.613 86.594C134.216 86.3813 133.926 86.1977 133.743 86.043L134.743 84.245C134.995 84.4867 135.405 84.7428 135.976 85.0135C136.556 85.2842 137.213 85.4195 137.948 85.4195C138.76 85.4195 139.417 85.2503 139.92 84.912C140.422 84.564 140.674 84.1145 140.674 83.5635C140.674 83.1478 140.553 82.8143 140.311 82.563C140.07 82.3117 139.746 82.1087 139.34 81.954C138.934 81.7993 138.489 81.664 138.006 81.548C137.542 81.4417 137.087 81.3015 136.643 81.1275C136.208 80.9535 135.807 80.7312 135.439 80.4605C135.082 80.1802 134.796 79.8418 134.584 79.4455C134.371 79.0395 134.265 78.5658 134.265 78.0245C134.265 77.3382 134.482 76.7533 134.917 76.27C135.352 75.777 135.923 75.4 136.628 75.139C137.334 74.878 138.102 74.7475 138.934 74.7475ZM152.878 74.7475C153.661 74.7475 154.42 74.9118 155.155 75.2405C155.899 75.5692 156.508 76.0912 156.982 76.8065C157.465 77.5122 157.707 78.4353 157.707 79.576V87H155.155V80.069C155.155 78.8897 154.884 78.0342 154.343 77.5025C153.811 76.9612 153.11 76.6905 152.24 76.6905C151.66 76.6905 151.104 76.8548 150.573 77.1835C150.041 77.5025 149.601 77.9472 149.253 78.5175C148.915 79.0782 148.746 79.7162 148.746 80.4315V87H146.194V67.048H148.746V77.2125C148.833 76.8838 149.065 76.5262 149.442 76.1395C149.828 75.7528 150.321 75.4242 150.921 75.1535C151.52 74.8828 152.173 74.7475 152.878 74.7475ZM161.059 87V67.048H163.611V77.3285C163.669 77.0288 163.896 76.676 164.293 76.27C164.689 75.864 165.221 75.5112 165.888 75.2115C166.555 74.9022 167.323 74.7475 168.193 74.7475C169.305 74.7475 170.291 75.0133 171.151 75.545C172.012 76.067 172.688 76.8017 173.181 77.749C173.684 78.6867 173.935 79.7887 173.935 81.055C173.935 82.3213 173.684 83.4282 173.181 84.3755C172.688 85.3132 172.012 86.043 171.151 86.565C170.291 87.087 169.305 87.348 168.193 87.348C167.372 87.348 166.627 87.1933 165.96 86.884C165.303 86.5747 164.766 86.2122 164.351 85.7965C163.935 85.3808 163.674 85.0087 163.568 84.68V87H161.059ZM171.427 81.055C171.427 80.1947 171.253 79.4503 170.905 78.822C170.557 78.1937 170.093 77.7055 169.513 77.3575C168.942 77.0095 168.314 76.8355 167.628 76.8355C166.883 76.8355 166.207 77.0143 165.598 77.372C164.989 77.72 164.505 78.213 164.148 78.851C163.79 79.4793 163.611 80.214 163.611 81.055C163.611 81.896 163.79 82.6355 164.148 83.2735C164.505 83.9018 164.989 84.39 165.598 84.738C166.207 85.086 166.883 85.26 167.628 85.26C168.314 85.26 168.942 85.0908 169.513 84.7525C170.093 84.4045 170.557 83.9163 170.905 83.288C171.253 82.6597 171.427 81.9153 171.427 81.055ZM181.835 87.348C180.608 87.348 179.515 87.0725 178.558 86.5215C177.611 85.9705 176.867 85.2262 176.325 84.2885C175.784 83.3412 175.513 82.273 175.513 81.084C175.513 79.895 175.784 78.822 176.325 77.865C176.867 76.908 177.611 76.1492 178.558 75.5885C179.515 75.0278 180.608 74.7475 181.835 74.7475C183.053 74.7475 184.131 75.0278 185.069 75.5885C186.016 76.1492 186.756 76.908 187.287 77.865C187.819 78.822 188.085 79.895 188.085 81.084C188.085 82.273 187.819 83.3412 187.287 84.2885C186.756 85.2262 186.016 85.9705 185.069 86.5215C184.131 87.0725 183.053 87.348 181.835 87.348ZM181.835 85.1875C182.609 85.1875 183.28 85.0087 183.851 84.651C184.431 84.2933 184.88 83.8052 185.199 83.1865C185.518 82.5582 185.678 81.8525 185.678 81.0695C185.678 80.2865 185.518 79.5808 185.199 78.9525C184.88 78.3242 184.431 77.8263 183.851 77.459C183.28 77.0917 182.609 76.908 181.835 76.908C181.052 76.908 180.371 77.0917 179.791 77.459C179.211 77.8263 178.756 78.3242 178.428 78.9525C178.109 79.5808 177.949 80.2865 177.949 81.0695C177.949 81.8525 178.109 82.5582 178.428 83.1865C178.756 83.8052 179.211 84.2933 179.791 84.651C180.371 85.0087 181.052 85.1875 181.835 85.1875ZM200.452 87V84.68C200.375 84.9217 200.147 85.2552 199.77 85.6805C199.403 86.1058 198.896 86.4925 198.248 86.8405C197.61 87.1788 196.856 87.348 195.986 87.348C194.884 87.348 193.883 87.087 192.984 86.565C192.095 86.043 191.385 85.3132 190.853 84.3755C190.331 83.4282 190.07 82.3213 190.07 81.055C190.07 79.7887 190.331 78.6867 190.853 77.749C191.385 76.8017 192.095 76.067 192.984 75.545C193.883 75.0133 194.884 74.7475 195.986 74.7475C196.846 74.7475 197.591 74.9022 198.219 75.2115C198.857 75.5208 199.364 75.8785 199.741 76.2845C200.128 76.6905 200.355 77.0385 200.423 77.3285V75.0955H202.917V87H200.452ZM192.564 81.055C192.564 81.9153 192.752 82.6597 193.129 83.288C193.506 83.9163 193.995 84.4045 194.594 84.7525C195.203 85.0908 195.851 85.26 196.537 85.26C197.272 85.26 197.929 85.086 198.509 84.738C199.089 84.39 199.548 83.9018 199.886 83.2735C200.225 82.6355 200.394 81.896 200.394 81.055C200.394 80.214 200.225 79.4793 199.886 78.851C199.548 78.213 199.089 77.72 198.509 77.372C197.929 77.0143 197.272 76.8355 196.537 76.8355C195.851 76.8355 195.203 77.0095 194.594 77.3575C193.995 77.7055 193.506 78.1937 193.129 78.822C192.752 79.4503 192.564 80.1947 192.564 81.055ZM208.768 87H206.259V75.0955H208.768V77.1545H208.695C208.743 76.9032 208.922 76.589 209.232 76.212C209.541 75.835 209.966 75.4967 210.508 75.197C211.049 74.8973 211.697 74.7475 212.451 74.7475C213.002 74.7475 213.485 74.8248 213.901 74.9795C214.326 75.1245 214.626 75.2695 214.8 75.4145L213.77 77.5025C213.635 77.3672 213.398 77.2318 213.06 77.0965C212.721 76.9515 212.301 76.879 211.798 76.879C211.16 76.879 210.614 77.0772 210.16 77.4735C209.705 77.8698 209.357 78.3483 209.116 78.909C208.884 79.46 208.768 79.9723 208.768 80.446V87ZM221.421 87.348C220.329 87.348 219.347 87.087 218.477 86.565C217.617 86.043 216.936 85.3132 216.433 84.3755C215.94 83.4282 215.693 82.3213 215.693 81.055C215.693 79.7887 215.94 78.6867 216.433 77.749C216.936 76.8017 217.617 76.067 218.477 75.545C219.347 75.0133 220.329 74.7475 221.421 74.7475C222.301 74.7475 223.074 74.9022 223.741 75.2115C224.408 75.5112 224.94 75.864 225.336 76.27C225.732 76.676 225.959 77.0288 226.017 77.3285V67.048H228.555V87H226.061V84.68C225.955 85.0087 225.689 85.3808 225.263 85.7965C224.848 86.2122 224.311 86.5747 223.654 86.884C222.997 87.1933 222.252 87.348 221.421 87.348ZM222.001 85.26C222.736 85.26 223.407 85.086 224.016 84.738C224.625 84.39 225.109 83.9018 225.466 83.2735C225.834 82.6355 226.017 81.896 226.017 81.055C226.017 80.214 225.834 79.4793 225.466 78.851C225.109 78.213 224.625 77.72 224.016 77.372C223.407 77.0143 222.736 76.8355 222.001 76.8355C221.324 76.8355 220.696 77.0095 220.116 77.3575C219.536 77.7055 219.067 78.1937 218.709 78.822C218.361 79.4503 218.187 80.1947 218.187 81.055C218.187 81.9153 218.361 82.6597 218.709 83.288C219.067 83.9163 219.536 84.4045 220.116 84.7525C220.696 85.0908 221.324 85.26 222.001 85.26Z" fill="url(#paint0_linear_597_14)"/>
</g>
<g filter="url(#filter1_d_597_14)">
<rect x="21" y="45" width="26" height="42" fill="url(#paint1_linear_597_14)"/>
<rect x="21" y="93" width="26" height="13" fill="url(#paint2_linear_597_14)"/>
<rect x="53" y="45" width="25" height="13" fill="url(#paint3_linear_597_14)"/>
<rect x="53" y="64" width="25" height="42" fill="url(#paint4_linear_597_14)"/>
</g>
<defs>
<filter id="filter0_d_597_14" x="98.5371" y="67.0479" width="134.018" height="28.2998" filterUnits="userSpaceOnUse" color-interpolation-filters="sRGB">
<feFlood flood-opacity="0" result="BackgroundImageFix"/>
<feColorMatrix in="SourceAlpha" type="matrix" values="0 0 0 0 0 0 0 0 0 0 0 0 0 0 0 0 0 0 127 0" result="hardAlpha"/>
<feOffset dy="4"/>
<feGaussianBlur stdDeviation="2"/>
<feComposite in2="hardAlpha" operator="out"/>
<feColorMatrix type="matrix" values="0 0 0 0 0 0 0 0 0 0 0 0 0 0 0 0 0 0 0.25 0"/>
<feBlend mode="normal" in2="BackgroundImageFix" result="effect1_dropShadow_597_14"/>
<feBlend mode="normal" in="SourceGraphic" in2="effect1_dropShadow_597_14" result="shape"/>
</filter>
<filter id="filter1_d_597_14" x="17" y="45" width="65" height="69" filterUnits="userSpaceOnUse" color-interpolation-filters="sRGB">
<feFlood flood-opacity="0" result="BackgroundImageFix"/>
<feColorMatrix in="SourceAlpha" type="matrix" values="0 0 0 0 0 0 0 0 0 0 0 0 0 0 0 0 0 0 127 0" result="hardAlpha"/>
<feOffset dy="4"/>
<feGaussianBlur stdDeviation="2"/>
<feComposite in2="hardAlpha" operator="out"/>
<feColorMatrix type="matrix" values="0 0 0 0 0 0 0 0 0 0 0 0 0 0 0 0 0 0 0.25 0"/>
<feBlend mode="normal" in2="BackgroundImageFix" result="effect1_dropShadow_597_14"/>
<feBlend mode="normal" in="SourceGraphic" in2="effect1_dropShadow_597_14" result="shape"/>
</filter>
<linearGradient id="paint0_linear_597_14" x1="125" y1="55.5" x2="126" y2="101" gradientUnits="userSpaceOnUse">
<stop stop-color="white"/>
<stop offset="1" stop-color="#BEBEBE"/>
</linearGradient>
<linearGradient id="paint1_linear_597_14" x1="34" y1="45" x2="34" y2="87" gradientUnits="userSpaceOnUse">
<stop stop-color="white"/>
<stop offset="1" stop-color="#8B8B8B"/>
</linearGradient>
<linearGradient id="paint2_linear_597_14" x1="34" y1="93" x2="34" y2="106" gradientUnits="userSpaceOnUse">
<stop stop-color="white"/>
<stop offset="1" stop-color="#8B8B8B"/>
</linearGradient>
<linearGradient id="paint3_linear_597_14" x1="65.5" y1="45" x2="65.5" y2="58" gradientUnits="userSpaceOnUse">
<stop stop-color="white"/>
<stop offset="1" stop-color="#8B8B8B"/>
</linearGradient>
<linearGradient id="paint4_linear_597_14" x1="65.5" y1="64" x2="65.5" y2="106" gradientUnits="userSpaceOnUse">
<stop stop-color="white"/>
<stop offset="1" stop-color="#8B8B8B"/>
</linearGradient>
</defs>
</svg>
