<svg width="32" height="36" viewBox="0 0 32 36" fill="none" xmlns="http://www.w3.org/2000/svg">
<g filter="url(#filter0_d_604_328)">
<path d="M16 4C22.6274 4 28 9.37258 28 16C28 22.6274 22.6274 28 16 28C9.37258 28 4 22.6274 4 16C4 9.37258 9.37258 4 16 4ZM11 20L8.00098 19.9297C7.98758 20.5019 8.13779 21.0662 8.43457 21.5557C8.73137 22.0451 9.16216 22.4397 9.67578 22.6924C10.1894 22.945 10.7652 23.0451 11.334 22.9814C11.9025 22.9178 12.4408 22.6926 12.8857 22.333C13.3308 21.9731 13.6644 21.4931 13.8457 20.9502C14.027 20.4073 14.0487 19.8236 13.9092 19.2686C13.7697 18.7137 13.4748 18.21 13.0586 17.8174C12.6422 17.4248 12.1218 17.1595 11.5596 17.0527L11 20ZM21.2939 17.0146C20.6032 16.9466 19.9101 17.1203 19.333 17.5059C18.7561 17.8914 18.3304 18.4649 18.1289 19.1289C17.9274 19.7931 17.9629 20.5072 18.2285 21.1484C18.4942 21.7895 18.974 22.3184 19.5859 22.6455C20.198 22.9726 20.9043 23.0777 21.585 22.9424C22.2657 22.807 22.879 22.4398 23.3193 21.9033C23.7596 21.3668 24 20.694 24 20H21L23.1211 17.8789C22.6303 17.3881 21.9847 17.0827 21.2939 17.0146ZM11.585 9.05762C10.9043 8.9223 10.198 9.02736 9.58594 9.35449C8.97395 9.68161 8.49415 10.2105 8.22852 10.8516C7.96291 11.4928 7.92743 12.2069 8.12891 12.8711C8.33036 13.5351 8.75612 14.1086 9.33301 14.4941C9.91008 14.8797 10.6032 15.0534 11.2939 14.9854C11.9847 14.9173 12.6303 14.6119 13.1211 14.1211L11 12H14C14 11.306 13.7596 10.6332 13.3193 10.0967C12.879 9.56016 12.2657 9.19302 11.585 9.05762ZM21 12L18.8789 9.87891C18.4593 10.2985 18.1734 10.8331 18.0576 11.415C17.9419 11.9969 18.0015 12.6004 18.2285 13.1484C18.4556 13.6963 18.8399 14.1646 19.333 14.4941C19.8264 14.8238 20.4067 15 21 15C21.5933 15 22.1736 14.8238 22.667 14.4941C23.1601 14.1646 23.5444 13.6963 23.7715 13.1484C23.9985 12.6004 24.0581 11.9969 23.9424 11.415C23.8266 10.8331 23.5407 10.2985 23.1211 9.87891L21 12Z" fill="url(#paint0_linear_604_328)"/>
</g>
<defs>
<filter id="filter0_d_604_328" x="-4" y="0" width="40" height="40" filterUnits="userSpaceOnUse" color-interpolation-filters="sRGB">
<feFlood flood-opacity="0" result="BackgroundImageFix"/>
<feColorMatrix in="SourceAlpha" type="matrix" values="0 0 0 0 0 0 0 0 0 0 0 0 0 0 0 0 0 0 127 0" result="hardAlpha"/>
<feOffset dy="4"/>
<feGaussianBlur stdDeviation="2"/>
<feComposite in2="hardAlpha" operator="out"/>
<feColorMatrix type="matrix" values="0 0 0 0 0 0 0 0 0 0 0 0 0 0 0 0 0 0 0.25 0"/>
<feBlend mode="normal" in2="BackgroundImageFix" result="effect1_dropShadow_604_328"/>
<feBlend mode="normal" in="SourceGraphic" in2="effect1_dropShadow_604_328" result="shape"/>
</filter>
<linearGradient id="paint0_linear_604_328" x1="16" y1="4" x2="16" y2="28" gradientUnits="userSpaceOnUse">
<stop stop-color="#FF4845"/>
<stop offset="1" stop-color="#297499"/>
</linearGradient>
</defs>
</svg>
