<svg width="32" height="36" viewBox="0 0 32 36" fill="none" xmlns="http://www.w3.org/2000/svg">
<g filter="url(#filter0_d_600_198)">
<circle cx="16" cy="16" r="11.5" fill="#45E6FF" stroke="#2F2F2F" stroke-linecap="round"/>
<path d="M18 9C18.1108 10.1912 18.3867 11.6812 18.5692 12.4291C18.6383 12.8618 18.805 13.1947 18.8883 13.4491C18.9167 13.5676 18.9167 13.6647 19 14" stroke="#2F2F2F" stroke-width="2" stroke-linecap="round"/>
<path d="M14 9C13.8892 10.1912 13.6133 11.6812 13.4308 12.4291C13.3617 12.8618 13.195 13.1947 13.1117 13.4491C13.0833 13.5676 13.0833 13.6647 13 14" stroke="#2F2F2F" stroke-width="2" stroke-linecap="round"/>
<path d="M19.3844 17.8634C25.8395 22.6533 8.46911 22.6394 11.7704 17.8672M11.7704 17.8672C15.1648 16.5221 5.88732 18.4886 11.7704 17.8672Z" stroke="#2F2F2F" stroke-width="2" stroke-linecap="round"/>
</g>
<defs>
<filter id="filter0_d_600_198" x="-4" y="0" width="40" height="40" filterUnits="userSpaceOnUse" color-interpolation-filters="sRGB">
<feFlood flood-opacity="0" result="BackgroundImageFix"/>
<feColorMatrix in="SourceAlpha" type="matrix" values="0 0 0 0 0 0 0 0 0 0 0 0 0 0 0 0 0 0 127 0" result="hardAlpha"/>
<feOffset dy="4"/>
<feGaussianBlur stdDeviation="2"/>
<feComposite in2="hardAlpha" operator="out"/>
<feColorMatrix type="matrix" values="0 0 0 0 0 0 0 0 0 0 0 0 0 0 0 0 0 0 0.25 0"/>
<feBlend mode="normal" in2="BackgroundImageFix" result="effect1_dropShadow_600_198"/>
<feBlend mode="normal" in="SourceGraphic" in2="effect1_dropShadow_600_198" result="shape"/>
</filter>
</defs>
</svg>
