<svg width="32" height="32" viewBox="0 0 32 32" fill="none" xmlns="http://www.w3.org/2000/svg">
<g clip-path="url(#clip0_598_74)">
<g filter="url(#filter0_d_598_74)">
<path d="M6.07905 8.81215C6.03006 8.37302 6.28023 7.95378 6.68666 7.78045C9.87076 6.42251 12.0822 5.23306 16 5C19.9771 5.2422 22.1845 6.46256 25.2733 7.76783C25.6982 7.9474 25.9529 8.39247 25.8811 8.84816C24.4091 18.185 22.0537 21.8898 16 26C9.53438 22.0187 7.1426 18.3461 6.07905 8.81215Z" fill="url(#paint0_linear_598_74)"/>
</g>
<path d="M12.2902 14.6014C12.5261 14.3655 12.9057 14.3567 13.1523 14.5814L15.5172 16.7367C15.7804 16.9767 15.7899 17.3878 15.5381 17.6397C15.3022 17.8755 14.9226 17.8843 14.6761 17.6596L12.3112 15.5043C12.0479 15.2643 12.0384 14.8532 12.2902 14.6014Z" fill="#2F2F2F"/>
<path d="M20.4022 9.58327C20.6613 9.82365 20.7094 10.2159 20.5159 10.5117L15.9713 17.4588C15.7255 17.8345 15.2008 17.8987 14.8716 17.5934C14.6125 17.353 14.5644 16.9608 14.7579 16.665L19.3025 9.71792C19.5483 9.34219 20.073 9.27794 20.4022 9.58327Z" fill="#2F2F2F"/>
</g>
<defs>
<filter id="filter0_d_598_74" x="2.07227" y="5" width="27.8203" height="29" filterUnits="userSpaceOnUse" color-interpolation-filters="sRGB">
<feFlood flood-opacity="0" result="BackgroundImageFix"/>
<feColorMatrix in="SourceAlpha" type="matrix" values="0 0 0 0 0 0 0 0 0 0 0 0 0 0 0 0 0 0 127 0" result="hardAlpha"/>
<feOffset dy="4"/>
<feGaussianBlur stdDeviation="2"/>
<feComposite in2="hardAlpha" operator="out"/>
<feColorMatrix type="matrix" values="0 0 0 0 0 0 0 0 0 0 0 0 0 0 0 0 0 0 0.25 0"/>
<feBlend mode="normal" in2="BackgroundImageFix" result="effect1_dropShadow_598_74"/>
<feBlend mode="normal" in="SourceGraphic" in2="effect1_dropShadow_598_74" result="shape"/>
</filter>
<linearGradient id="paint0_linear_598_74" x1="16" y1="6" x2="16" y2="26" gradientUnits="userSpaceOnUse">
<stop stop-color="#E5E5E5"/>
<stop offset="1" stop-color="#A3A3A3"/>
</linearGradient>
<clipPath id="clip0_598_74">
<rect width="32" height="32" fill="white"/>
</clipPath>
</defs>
</svg>
