<svg width="32" height="32" viewBox="0 0 32 32" fill="none" xmlns="http://www.w3.org/2000/svg">
<g clip-path="url(#clip0_598_46)">
<g filter="url(#filter0_d_598_46)">
<path d="M29 7C30.1046 7 31 7.89543 31 9V24L30.9893 24.2041C30.8938 25.1457 30.1457 25.8938 29.2041 25.9893L29 26H3L2.7959 25.9893C1.85435 25.8938 1.1062 25.1457 1.01074 24.2041L1 24V9C1 7.89543 1.89543 7 3 7H29ZM3 8C2.44772 8 2 8.44772 2 9V24C2 24.5523 2.44772 25 3 25H29C29.5523 25 30 24.5523 30 24V9C30 8.44772 29.5523 8 29 8H3ZM12 19C14.2091 19 16 20.7909 16 23H4C4 20.7909 5.79086 19 8 19H12ZM10 10C12.2091 10 14 11.7909 14 14C14 16.2091 12.2091 18 10 18C7.79086 18 6 16.2091 6 14C6 11.7909 7.79086 10 10 10ZM21.5 16C21.7761 16 22 16.2239 22 16.5C22 16.7761 21.7761 17 21.5 17H16.5C16.2239 17 16 16.7761 16 16.5C16 16.2239 16.2239 16 16.5 16H21.5ZM24.5 14C24.7761 14 25 14.2239 25 14.5C25 14.7761 24.7761 15 24.5 15H16.5C16.2239 15 16 14.7761 16 14.5C16 14.2239 16.2239 14 16.5 14H24.5ZM27.5 12C27.7761 12 28 12.2239 28 12.5C28 12.7761 27.7761 13 27.5 13H16.5C16.2239 13 16 12.7761 16 12.5C16 12.2239 16.2239 12 16.5 12H27.5Z" fill="url(#paint0_linear_598_46)"/>
</g>
</g>
<defs>
<filter id="filter0_d_598_46" x="-3" y="7" width="38" height="27" filterUnits="userSpaceOnUse" color-interpolation-filters="sRGB">
<feFlood flood-opacity="0" result="BackgroundImageFix"/>
<feColorMatrix in="SourceAlpha" type="matrix" values="0 0 0 0 0 0 0 0 0 0 0 0 0 0 0 0 0 0 127 0" result="hardAlpha"/>
<feOffset dy="4"/>
<feGaussianBlur stdDeviation="2"/>
<feComposite in2="hardAlpha" operator="out"/>
<feColorMatrix type="matrix" values="0 0 0 0 0 0 0 0 0 0 0 0 0 0 0 0 0 0 0.25 0"/>
<feBlend mode="normal" in2="BackgroundImageFix" result="effect1_dropShadow_598_46"/>
<feBlend mode="normal" in="SourceGraphic" in2="effect1_dropShadow_598_46" result="shape"/>
</filter>
<linearGradient id="paint0_linear_598_46" x1="14" y1="7" x2="16" y2="26" gradientUnits="userSpaceOnUse">
<stop stop-color="white"/>
<stop offset="1" stop-color="#8A8A8A"/>
</linearGradient>
<clipPath id="clip0_598_46">
<rect width="32" height="32" fill="white"/>
</clipPath>
</defs>
</svg>
