<svg width="32" height="32" viewBox="0 0 32 32" fill="none" xmlns="http://www.w3.org/2000/svg">
<g clip-path="url(#clip0_609_2)">
<g filter="url(#filter0_d_609_2)">
<path d="M14.75 6C19.5825 6 23.5 9.91751 23.5 14.75C23.5 16.9099 22.715 18.8849 21.418 20.4111L25.2041 24.333C25.7794 24.9289 25.7627 25.8787 25.167 26.4541C24.571 27.0292 23.6212 27.0119 23.0459 26.416L19.1064 22.3359C17.8232 23.0744 16.3368 23.5 14.75 23.5C9.91753 23.5 6.00004 19.5825 6 14.75C6 9.91751 9.91751 6 14.75 6ZM14.75 8.625C11.3673 8.625 8.625 11.3673 8.625 14.75C8.62504 18.1327 11.3673 20.875 14.75 20.875C18.1327 20.875 20.875 18.1327 20.875 14.75C20.875 11.3673 18.1327 8.625 14.75 8.625Z" fill="url(#paint0_linear_609_2)"/>
</g>
</g>
<defs>
<filter id="filter0_d_609_2" x="2" y="6" width="27.625" height="28.874" filterUnits="userSpaceOnUse" color-interpolation-filters="sRGB">
<feFlood flood-opacity="0" result="BackgroundImageFix"/>
<feColorMatrix in="SourceAlpha" type="matrix" values="0 0 0 0 0 0 0 0 0 0 0 0 0 0 0 0 0 0 127 0" result="hardAlpha"/>
<feOffset dy="4"/>
<feGaussianBlur stdDeviation="2"/>
<feComposite in2="hardAlpha" operator="out"/>
<feColorMatrix type="matrix" values="0 0 0 0 0 0 0 0 0 0 0 0 0 0 0 0 0 0 0.25 0"/>
<feBlend mode="normal" in2="BackgroundImageFix" result="effect1_dropShadow_609_2"/>
<feBlend mode="normal" in="SourceGraphic" in2="effect1_dropShadow_609_2" result="shape"/>
</filter>
<linearGradient id="paint0_linear_609_2" x1="15.8124" y1="6" x2="15.8124" y2="26.8745" gradientUnits="userSpaceOnUse">
<stop stop-color="#F4F4F4"/>
<stop offset="1" stop-color="#9A9A9A"/>
</linearGradient>
<clipPath id="clip0_609_2">
<rect width="32" height="32" fill="white"/>
</clipPath>
</defs>
</svg>
