<svg width="32" height="32" viewBox="0 0 32 32" fill="none" xmlns="http://www.w3.org/2000/svg">
<g clip-path="url(#clip0_603_246)">
<g filter="url(#filter0_d_603_246)">
<path d="M23 18C23.3312 18 23.5994 18.2684 23.5996 18.5996V20.4004H25.4004C25.7316 20.4006 26 20.6688 26 21C26 21.3312 25.7316 21.5994 25.4004 21.5996H23.5996V23.4004C23.5994 23.7316 23.3312 24 23 24C22.6688 24 22.4006 23.7316 22.4004 23.4004V21.5996H20.5996C20.2684 21.5994 20 21.3312 20 21C20 20.6688 20.2684 20.4006 20.5996 20.4004H22.4004V18.5996C22.4006 18.2684 22.6688 18 23 18ZM16.001 10C22.6283 10 25.2441 14.1614 28.001 16C29.0834 16.7219 28.6824 17.7013 27.4189 18.6621C27.2616 18.3654 27.0768 18.0856 26.8652 17.8281C27.1598 17.5992 27.3753 17.3883 27.5078 17.2021C27.5897 17.087 27.6148 17.016 27.623 16.9844C27.6026 16.9568 27.5544 16.9041 27.4463 16.832C24.3099 14.7404 22.2255 11 16.001 11C9.83265 11 7.35388 14.509 4.6416 16.7686C4.39676 16.9725 4.37637 17.0922 4.37402 17.1094C4.37157 17.1275 4.3636 17.2228 4.50293 17.4258C4.81219 17.8763 5.57887 18.4556 6.81348 19.0312C9.22565 20.1559 12.8311 21 16.001 21C16.6537 21 17.3257 20.9559 18.0029 20.8799C18.002 20.9198 18 20.9598 18 21C18 21.2996 18.0276 21.5928 18.0781 21.8779C17.3768 21.9554 16.6798 22 16.001 22C9.37364 22 1.00025 18.5 4.00098 16C6.54696 13.879 9.37365 10.0001 16.001 10ZM16 13C17.6569 13 19 14.3431 19 16C19 17.6569 17.6569 19 16 19C14.3431 19 13 17.6569 13 16C13 14.3431 14.3431 13 16 13Z" fill="url(#paint0_linear_603_246)"/>
</g>
</g>
<defs>
<filter id="filter0_d_603_246" x="-0.626953" y="10" width="33.2539" height="22" filterUnits="userSpaceOnUse" color-interpolation-filters="sRGB">
<feFlood flood-opacity="0" result="BackgroundImageFix"/>
<feColorMatrix in="SourceAlpha" type="matrix" values="0 0 0 0 0 0 0 0 0 0 0 0 0 0 0 0 0 0 127 0" result="hardAlpha"/>
<feOffset dy="4"/>
<feGaussianBlur stdDeviation="2"/>
<feComposite in2="hardAlpha" operator="out"/>
<feColorMatrix type="matrix" values="0 0 0 0 0 0 0 0 0 0 0 0 0 0 0 0 0 0 0.25 0"/>
<feBlend mode="normal" in2="BackgroundImageFix" result="effect1_dropShadow_603_246"/>
<feBlend mode="normal" in="SourceGraphic" in2="effect1_dropShadow_603_246" result="shape"/>
</filter>
<linearGradient id="paint0_linear_603_246" x1="16.0003" y1="10" x2="16.0003" y2="24" gradientUnits="userSpaceOnUse">
<stop stop-color="#F5F5F5"/>
<stop offset="1" stop-color="#9D9D9D"/>
</linearGradient>
<clipPath id="clip0_603_246">
<rect width="32" height="32" fill="white"/>
</clipPath>
</defs>
</svg>
