<svg width="32" height="32" viewBox="0 0 32 32" fill="none" xmlns="http://www.w3.org/2000/svg">
<g clip-path="url(#clip0_598_66)">
<g filter="url(#filter0_d_598_66)">
<path d="M17.7129 2C18.1747 2.00005 18.5763 2.31705 18.6777 2.76758C18.8991 3.75077 19.1007 4.69082 19.4316 5.54785C19.7495 5.65216 20.0609 5.77058 20.3652 5.90234C21.2677 5.72438 22.1104 5.29303 23.0967 4.73242C23.4982 4.50419 24.004 4.57546 24.3223 4.91016L26.4375 7.13477C26.7627 7.47699 26.8018 8.00034 26.542 8.39453C26.0767 9.10043 25.7018 9.73496 25.4326 10.3398C25.9268 11.1617 26.3139 12.0538 26.5811 12.9971C27.2776 13.3652 28.0766 13.594 29.0156 13.8271C29.4639 13.9384 29.7813 14.3389 29.7812 14.8008V17.8701C29.7812 18.3423 29.4493 18.7488 28.9893 18.8555C27.9346 19.1 27.0664 19.3578 26.3516 19.7246C26.1615 20.2526 25.933 20.762 25.668 21.249C25.8402 22.0289 26.1903 22.794 26.6318 23.6709C26.8393 24.0833 26.7418 24.5848 26.3916 24.8857L24.0635 26.8857C23.7053 27.1933 23.1814 27.2061 22.8008 26.9268C22.1638 26.4592 21.5852 26.0733 21.0303 25.7803C20.4534 26.0776 19.8484 26.3279 19.2178 26.5205C18.8977 27.1992 18.6625 28.0091 18.4385 28.9756C18.3318 29.4356 17.9253 29.7676 17.4531 29.7676H14.3838C13.9219 29.7676 13.5214 29.4502 13.4102 29.002C13.1611 27.9986 12.9135 27.1572 12.499 26.4277C11.9296 26.2366 11.381 26.0011 10.8574 25.7236C10.2683 26.0228 9.65444 26.4278 8.97461 26.9268C8.59399 27.2061 8.07008 27.1933 7.71191 26.8857L5.38379 24.8857C5.0336 24.5848 4.93608 24.0833 5.14355 23.6709C5.64518 22.6748 6.02842 21.8231 6.16699 20.9297C5.99582 20.5889 5.84074 20.2388 5.70508 19.8789C4.94013 19.4274 3.98313 19.1329 2.78613 18.8555C2.32612 18.7488 1.99416 18.3423 1.99414 17.8701V14.8008C1.99414 14.3389 2.31152 13.9384 2.75977 13.8271C3.82216 13.5634 4.70354 13.3025 5.46191 12.8418C5.70215 12.0391 6.03232 11.2757 6.43945 10.5615C6.16725 9.88924 5.75609 9.18749 5.2334 8.39453C4.97356 8.00034 5.01269 7.47699 5.33789 7.13477L7.45312 4.91016C7.77137 4.57546 8.2772 4.50419 8.67871 4.73242C9.72274 5.32588 10.6058 5.77522 11.5693 5.93164C11.9076 5.78256 12.2543 5.64914 12.6094 5.53418C12.9011 4.7179 13.1171 3.79537 13.332 2.79297C13.431 2.33137 13.8375 2.00018 14.3096 2H17.7129ZM16 11.5996C13.5699 11.5996 11.5996 13.5699 11.5996 16C11.5996 18.4301 13.5699 20.4004 16 20.4004C18.4301 20.4004 20.4004 18.4301 20.4004 16C20.4004 13.5699 18.4301 11.5996 16 11.5996Z" fill="url(#paint0_linear_598_66)"/>
</g>
</g>
<defs>
<filter id="filter0_d_598_66" x="-2.00586" y="2" width="35.7871" height="35.7676" filterUnits="userSpaceOnUse" color-interpolation-filters="sRGB">
<feFlood flood-opacity="0" result="BackgroundImageFix"/>
<feColorMatrix in="SourceAlpha" type="matrix" values="0 0 0 0 0 0 0 0 0 0 0 0 0 0 0 0 0 0 127 0" result="hardAlpha"/>
<feOffset dy="4"/>
<feGaussianBlur stdDeviation="2"/>
<feComposite in2="hardAlpha" operator="out"/>
<feColorMatrix type="matrix" values="0 0 0 0 0 0 0 0 0 0 0 0 0 0 0 0 0 0 0.25 0"/>
<feBlend mode="normal" in2="BackgroundImageFix" result="effect1_dropShadow_598_66"/>
<feBlend mode="normal" in="SourceGraphic" in2="effect1_dropShadow_598_66" result="shape"/>
</filter>
<linearGradient id="paint0_linear_598_66" x1="15.8877" y1="2" x2="15.8877" y2="29.7676" gradientUnits="userSpaceOnUse">
<stop stop-color="#F1F1F1"/>
<stop offset="1" stop-color="#9E9E9E"/>
</linearGradient>
<clipPath id="clip0_598_66">
<rect width="32" height="32" fill="white"/>
</clipPath>
</defs>
</svg>
