<svg width="32" height="32" viewBox="0 0 32 32" fill="none" xmlns="http://www.w3.org/2000/svg">
<g clip-path="url(#clip0_598_70)">
<g filter="url(#filter0_d_598_70)">
<rect x="4" y="7" width="25" height="19" rx="4" fill="url(#paint0_linear_598_70)"/>
</g>
<ellipse cx="16.875" cy="22" rx="1.125" ry="1" fill="#2F2F2F"/>
<path d="M13.1862 12.3333C12.5311 12.3333 11.9834 11.7773 12.2731 11.1897C12.4002 10.9321 12.5703 10.6856 12.7811 10.4565C13.29 9.90318 14.0121 9.47622 14.8533 9.23121C15.6944 8.9862 16.6157 8.93451 17.4971 9.08286C18.3785 9.23121 19.1791 9.57273 19.7948 10.0629C20.4104 10.5531 20.8125 11.1693 20.9486 11.8312C21.0848 12.4931 20.9487 13.17 20.5581 13.7738C20.1676 14.3776 19.5406 14.8802 18.7588 15.2163C18.2439 15.4377 17.6776 15.58 17.0933 15.6376C16.5948 15.6867 16.216 15.2418 16.2647 14.7432V14.7432C16.3104 14.2746 16.7249 13.9407 17.1816 13.8263C17.3153 13.7928 17.4447 13.7494 17.568 13.6964C17.9376 13.5375 18.234 13.2998 18.4187 13.0144C18.6034 12.7289 18.6677 12.4089 18.6033 12.0959C18.5389 11.783 18.3488 11.4917 18.0578 11.2599C17.7667 11.0281 17.3881 10.8666 16.9714 10.7965C16.5547 10.7264 16.1191 10.7508 15.7214 10.8666C15.3237 10.9825 14.9823 11.1844 14.7417 11.446V11.446C14.3738 11.8459 13.9319 12.3333 13.3884 12.3333L13.1862 12.3333Z" fill="#2F2F2F"/>
<path d="M16.8864 20.0531C16.699 20.6587 15.9807 20.8699 15.6617 20.3221C15.5014 20.0468 15.3657 19.7373 15.2595 19.4011C14.9984 18.574 14.9319 17.6352 15.0711 16.7423C15.2103 15.8493 15.5469 15.0565 16.0242 14.4968C16.2383 14.2459 16.4748 14.0486 16.7248 13.9095C17.2156 13.6365 17.6852 14.117 17.6757 14.6785L17.6736 14.803C17.6649 15.3143 17.1834 15.7462 16.8516 16.1353V16.1353C16.6209 16.4057 16.4583 16.7888 16.3911 17.2202C16.3238 17.6516 16.3559 18.1052 16.4821 18.5048C16.5284 18.6515 16.5864 18.7877 16.6542 18.9106C16.8469 19.26 17.0044 19.6719 16.8864 20.0531V20.0531Z" fill="#2F2F2F"/>
</g>
<defs>
<filter id="filter0_d_598_70" x="0" y="7" width="33" height="27" filterUnits="userSpaceOnUse" color-interpolation-filters="sRGB">
<feFlood flood-opacity="0" result="BackgroundImageFix"/>
<feColorMatrix in="SourceAlpha" type="matrix" values="0 0 0 0 0 0 0 0 0 0 0 0 0 0 0 0 0 0 127 0" result="hardAlpha"/>
<feOffset dy="4"/>
<feGaussianBlur stdDeviation="2"/>
<feComposite in2="hardAlpha" operator="out"/>
<feColorMatrix type="matrix" values="0 0 0 0 0 0 0 0 0 0 0 0 0 0 0 0 0 0 0.25 0"/>
<feBlend mode="normal" in2="BackgroundImageFix" result="effect1_dropShadow_598_70"/>
<feBlend mode="normal" in="SourceGraphic" in2="effect1_dropShadow_598_70" result="shape"/>
</filter>
<linearGradient id="paint0_linear_598_70" x1="16.5" y1="7" x2="16.5" y2="26" gradientUnits="userSpaceOnUse">
<stop stop-color="#EEEEEE"/>
<stop offset="1" stop-color="#A2A2A2"/>
</linearGradient>
<clipPath id="clip0_598_70">
<rect width="32" height="32" fill="white"/>
</clipPath>
</defs>
</svg>
